<svg width="16" height="16" viewBox="0 0 16 16" fill="none" xmlns="http://www.w3.org/2000/svg">
<path d="M1 1.88652C1 1.65153 1.0878 1.42617 1.24408 1.26C1.40036 1.09384 1.61232 1.00049 1.83333 1.00049H3.5C3.72101 1.00049 3.93298 1.09384 4.08926 1.26C4.24554 1.42617 4.33333 1.65153 4.33333 1.88652V14.291C4.33333 14.526 4.24554 14.7514 4.08926 14.9176C3.93298 15.0837 3.72101 15.1771 3.5 15.1771H1.83333C1.61232 15.1771 1.40036 15.0837 1.24408 14.9176C1.0878 14.7514 1 14.526 1 14.291V1.88652Z" stroke="white" stroke-width="1.5" stroke-linecap="round" stroke-linejoin="round"/>
<path d="M4.3335 1.88652C4.3335 1.65153 4.42129 1.42617 4.57757 1.26C4.73385 1.09384 4.94582 1.00049 5.16683 1.00049H6.8335C7.05451 1.00049 7.26647 1.09384 7.42275 1.26C7.57903 1.42617 7.66683 1.65153 7.66683 1.88652V14.291C7.66683 14.526 7.57903 14.7514 7.42275 14.9176C7.26647 15.0837 7.05451 15.1771 6.8335 15.1771H5.16683C4.94582 15.1771 4.73385 15.0837 4.57757 14.9176C4.42129 14.7514 4.3335 14.526 4.3335 14.291V1.88652Z" stroke="white" stroke-width="1.5" stroke-linecap="round" stroke-linejoin="round"/>
<path d="M1 4.54419H4.33333" stroke="white" stroke-width="1.5" stroke-linecap="round" stroke-linejoin="round"/>
<path d="M4.3335 11.6329H7.66683" stroke="white" stroke-width="1.5" stroke-linecap="round" stroke-linejoin="round"/>
<path d="M8.33606 1.49665L10.1561 1.02705C10.6244 0.907437 11.1002 1.1954 11.2244 1.67563L14.3036 13.5645C14.3579 13.7821 14.3338 14.0135 14.2361 14.2133C14.1384 14.4131 13.974 14.5669 13.7752 14.6445L13.6644 14.6809L11.8444 15.1505C11.3761 15.2701 10.9002 14.9821 10.7761 14.5019L7.69689 2.61306C7.64257 2.3954 7.66663 2.16402 7.76435 1.96424C7.86208 1.76446 8.02643 1.61066 8.22523 1.53298L8.33606 1.49665Z" stroke="white" stroke-width="1.5" stroke-linecap="round" stroke-linejoin="round"/>
<path d="M8.5 5.43023L11.8333 4.54419" stroke="white" stroke-width="1.5" stroke-linecap="round" stroke-linejoin="round"/>
<path d="M10.167 11.6327L13.4362 10.7644" stroke="white" stroke-width="1.5" stroke-linecap="round" stroke-linejoin="round"/>
</svg>
